<svg xmlns="http://www.w3.org/2000/svg" version="1.1" viewBox="-5.0 -10.0 110.0 135.0">
 <path d="m60.664 13.164c0 5.8906-4.7734 10.664-10.664 10.664s-10.664-4.7734-10.664-10.664c0-5.8906 4.7734-10.664 10.664-10.664s10.664 4.7734 10.664 10.664"/>
 <path d="m7.0625 30.023v1.4453c0 2.2305 1.8086 4.0352 4.0352 4.0352h21.844c1.4805 0 2.6758 1.1992 2.6758 2.6758v55.285c0 2.2305 1.8086 4.0352 4.0352 4.0352h2.2734c2.2305 0 4.0352-1.8086 4.0352-4.0352l0.003906-26.645c0-2.2305 1.8086-4.0352 4.0352-4.0352 2.2305 0 4.0352 1.8086 4.0352 4.0352v26.645c0 2.2305 1.8086 4.0352 4.0352 4.0352h2.2734c2.2305 0 4.0352-1.8086 4.0352-4.0352v-55.285c0-1.4805 1.1992-2.6758 2.6758-2.6758h21.844c2.2305 0 4.0352-1.8086 4.0352-4.0352v-1.4453c0-2.2305-1.8086-4.0352-4.0352-4.0352l-77.801-0.003906c-2.2266 0-4.0352 1.8086-4.0352 4.0391z"/>
<text x="0.0" y="117.5" font-size="5.0" font-weight="bold" font-family="Arbeit Regular, Helvetica, Arial-Unicode, Arial, Sans-serif" fill="#000000">Created by ayunda.fahr</text><text x="0.0" y="122.5" font-size="5.0" font-weight="bold" font-family="Arbeit Regular, Helvetica, Arial-Unicode, Arial, Sans-serif" fill="#000000">from Noun Project</text></svg>