<svg xmlns="http://www.w3.org/2000/svg" version="1.1" viewBox="-5.0 -10.0 110.0 135.0">
 <path d="m44.059 16.625c-0.17969-0.13672-0.21094-0.39453-0.074219-0.57031 0.085937-0.10938 0.21094-0.16406 0.33984-0.15625l3.8398-0.007813 1.3594-3.793c0.074218-0.21094 0.30859-0.32031 0.51953-0.24609 0.12109 0.042969 0.21094 0.14063 0.25 0.25781l1.1992 3.6641 4.0273 0.12109c0.22656 0.007813 0.40234 0.19531 0.39453 0.41797-0.003906 0.13672-0.074218 0.25781-0.18359 0.32812l-3.1016 2.2617 1.1289 3.8711c0.0625 0.21484-0.0625 0.44141-0.27734 0.50391-0.125 0.035156-0.25391 0.011718-0.35156-0.0625l-3.125-2.2617-3.3281 2.2695c-0.1875 0.12891-0.44141 0.078125-0.56641-0.10547-0.078125-0.11328-0.089844-0.25391-0.046875-0.37109l1.1797-3.6523-3.1875-2.4648zm46.449 70.738c0 0.44531-0.36328 0.80859-0.80859 0.80859l-79.398 0.003906c-0.44922 0-0.80859-0.36328-0.80859-0.80859 0-0.44531 0.36328-0.80859 0.80859-0.80859v-42.359h10.117 0.011719 0.011718l0.011719-0.003907h0.011719l0.09375-0.03125 0.085937-0.042968 0.125-0.125 0.042969-0.085938 0.027344-0.082031v-0.011719l0.003906-0.011718v-0.011719l0.003906-0.011719v-0.011719-0.011719-3.668h9.6953v46.438h0.82031l-0.03125-58.016h4.0938c0.22656 0 0.41016-0.18359 0.41016-0.41016v-3.7461h28.328v3.7461c0 0.22656 0.18359 0.41016 0.41016 0.41016h4.0938v58.043h0.82031v-46.438h9.6953v3.668c0 0.22656 0.18359 0.41016 0.41016 0.41016h10.105v42.359c0.44922 0 0.80859 0.36328 0.80859 0.80859zm-9.5469-30.762c0 0.22656 0.18359 0.41016 0.41016 0.41016h3.7578c0.22656 0 0.41016-0.18359 0.41016-0.41016v-4.8945c0-0.22656-0.18359-0.41016-0.41016-0.41016h-3.7578c-0.22656 0-0.41016 0.18359-0.41016 0.41016zm0 9.793c0 0.22656 0.18359 0.41016 0.41016 0.41016h3.7578c0.22656 0 0.41016-0.18359 0.41016-0.41016v-4.8945c0-0.22656-0.18359-0.41016-0.41016-0.41016h-3.7578c-0.22656 0-0.41016 0.18359-0.41016 0.41016zm0 9.793c0 0.22656 0.18359 0.41016 0.41016 0.41016h3.7578c0.22656 0 0.41016-0.18359 0.41016-0.41016v-4.8945c0-0.22656-0.18359-0.41016-0.41016-0.41016h-3.7578c-0.22656 0-0.41016 0.18359-0.41016 0.41016zm-7.5195-19.586c0 0.22656 0.18359 0.41016 0.41016 0.41016h3.7578c0.22656 0 0.41016-0.18359 0.41016-0.41016v-4.8945c0-0.22656-0.18359-0.41016-0.41016-0.41016h-3.7578c-0.22656 0-0.41016 0.18359-0.41016 0.41016zm0 9.793c0 0.22656 0.18359 0.41016 0.41016 0.41016h3.7578c0.22656 0 0.41016-0.18359 0.41016-0.41016v-4.8945c0-0.22656-0.18359-0.41016-0.41016-0.41016h-3.7578c-0.22656 0-0.41016 0.18359-0.41016 0.41016zm0 9.793c0 0.22656 0.18359 0.41016 0.41016 0.41016h3.7578c0.22656 0 0.41016-0.18359 0.41016-0.41016v-4.8945c0-0.22656-0.18359-0.41016-0.41016-0.41016h-3.7578c-0.22656 0-0.41016 0.18359-0.41016 0.41016zm-20.691-35.305c0 0.22656 0.18359 0.41016 0.41016 0.41016h6.5039c0.22656 0 0.41016-0.18359 0.41016-0.41016v-5.1328c0-0.22656-0.18359-0.41016-0.41016-0.41016h-6.5039c-0.22656 0-0.41016 0.18359-0.41016 0.41016zm0 10.27c0 0.22656 0.18359 0.41016 0.41016 0.41016h6.5039c0.22656 0 0.41016-0.18359 0.41016-0.41016v-5.1328c0-0.22656-0.18359-0.41016-0.41016-0.41016h-6.5039c-0.22656 0-0.41016 0.18359-0.41016 0.41016zm0 10.27c0 0.22656 0.18359 0.41016 0.41016 0.41016h6.5039c0.22656 0 0.41016-0.18359 0.41016-0.41016v-5.1328c0-0.22656-0.18359-0.41016-0.41016-0.41016h-6.5039c-0.22656 0-0.41016 0.18359-0.41016 0.41016zm0 10.27c0 0.22656 0.18359 0.41016 0.41016 0.41016h6.5039c0.22656 0 0.41016-0.18359 0.41016-0.41016v-5.1328c0-0.22656-0.18359-0.41016-0.41016-0.41016h-6.5039c-0.22656 0-0.41016 0.18359-0.41016 0.41016zm-13.008-30.805c0 0.22656 0.18359 0.41016 0.41016 0.41016h6.5039c0.22656 0 0.41016-0.18359 0.41016-0.41016v-5.1328c0-0.22656-0.18359-0.41016-0.41016-0.41016h-6.5039c-0.22656 0-0.41016 0.18359-0.41016 0.41016zm0 10.27c0 0.22656 0.18359 0.41016 0.41016 0.41016h6.5039c0.22656 0 0.41016-0.18359 0.41016-0.41016v-5.1328c0-0.22656-0.18359-0.41016-0.41016-0.41016h-6.5039c-0.22656 0-0.41016 0.18359-0.41016 0.41016zm0 10.27c0 0.22656 0.18359 0.41016 0.41016 0.41016h6.5039c0.22656 0 0.41016-0.18359 0.41016-0.41016v-5.1328c0-0.22656-0.18359-0.41016-0.41016-0.41016h-6.5039c-0.22656 0-0.41016 0.18359-0.41016 0.41016zm0 10.27c0 0.22656 0.18359 0.41016 0.41016 0.41016h6.5039c0.22656 0 0.41016-0.18359 0.41016-0.41016v-5.1328c0-0.22656-0.18359-0.41016-0.41016-0.41016h-6.5039c-0.22656 0-0.41016 0.18359-0.41016 0.41016zm5.4688 14.863h9.5703v-8.6484c0-0.22656-0.18359-0.41016-0.41016-0.41016h-8.7539c-0.22656 0-0.41016 0.18359-0.41016 0.41016v8.6484zm-23.234-29.953c0 0.22656 0.18359 0.41016 0.41016 0.41016h3.7578c0.22656 0 0.41016-0.18359 0.41016-0.41016v-4.8945c0-0.22656-0.18359-0.41016-0.41016-0.41016h-3.7578c-0.22656 0-0.41016 0.18359-0.41016 0.41016zm0 9.793c0 0.22656 0.18359 0.41016 0.41016 0.41016h3.7578c0.22656 0 0.41016-0.18359 0.41016-0.41016v-4.8945c0-0.22656-0.18359-0.41016-0.41016-0.41016h-3.7578c-0.22656 0-0.41016 0.18359-0.41016 0.41016zm0 9.793c0 0.22656 0.18359 0.41016 0.41016 0.41016h3.7578c0.22656 0 0.41016-0.18359 0.41016-0.41016v-4.8945c0-0.22656-0.18359-0.41016-0.41016-0.41016h-3.7578c-0.22656 0-0.41016 0.18359-0.41016 0.41016zm-7.5195-19.586c0 0.22656 0.18359 0.41016 0.41016 0.41016h3.7578c0.22656 0 0.41016-0.18359 0.41016-0.41016v-4.8945c0-0.22656-0.18359-0.41016-0.41016-0.41016h-3.7578c-0.22656 0-0.41016 0.18359-0.41016 0.41016zm0 9.793c0 0.22656 0.18359 0.41016 0.41016 0.41016h3.7578c0.22656 0 0.41016-0.18359 0.41016-0.41016v-4.8945c0-0.22656-0.18359-0.41016-0.41016-0.41016h-3.7578c-0.22656 0-0.41016 0.18359-0.41016 0.41016zm0 9.793c0 0.22656 0.18359 0.41016 0.41016 0.41016h3.7578c0.22656 0 0.41016-0.18359 0.41016-0.41016v-4.8945c0-0.22656-0.18359-0.41016-0.41016-0.41016h-3.7578c-0.22656 0-0.41016 0.18359-0.41016 0.41016z"/>
<text x="0.0" y="117.5" font-size="5.0" font-weight="bold" font-family="Arbeit Regular, Helvetica, Arial-Unicode, Arial, Sans-serif" fill="#000000">Created by Art Isnakafa</text><text x="0.0" y="122.5" font-size="5.0" font-weight="bold" font-family="Arbeit Regular, Helvetica, Arial-Unicode, Arial, Sans-serif" fill="#135846">from Noun Project</text></svg>