<svg xmlns="http://www.w3.org/2000/svg" xmlns:xlink="http://www.w3.org/1999/xlink" version="1.1"
  x="0px" y="0px" viewBox="0 0 64 80" style="enable-background:new 0 0 64 64;" xml:space="preserve"><path fill="#135846" d="M3,62h4c0.552,0,1-0.448,1-1v-3h30v3c0,0.552,0.448,1,1,1h4c0.552,0,1-0.448,1-1V51v-6c0-2.414-1.721-4.434-4-4.899V31  c0-1.654-1.346-3-3-3H9c-1.654,0-3,1.346-3,3v9.101C3.721,40.566,2,42.586,2,45v6v10C2,61.552,2.448,62,3,62z M42,60h-2v-3  c0-0.552-0.448-1-1-1H7c-0.552,0-1,0.448-1,1v3H4v-8h38V60z M8,31c0-0.551,0.449-1,1-1h28c0.551,0,1,0.449,1,1v9h-2v-4  c0-1.654-1.346-3-3-3h-6c-1.654,0-3,1.346-3,3v4h-2v-4c0-1.654-1.346-3-3-3h-6c-1.654,0-3,1.346-3,3v4H8V31z M34,40h-8v-4  c0-0.551,0.449-1,1-1h6c0.551,0,1,0.449,1,1V40z M20,40h-8v-4c0-0.551,0.449-1,1-1h6c0.551,0,1,0.449,1,1V40z M4,45  c0-1.654,1.346-3,3-3h4h10h4h10h4c1.654,0,3,1.346,3,3v5H4V45z"/><path fill="#212121" d="M61,40H47c-0.552,0-1,0.448-1,1v8v7h2v-6h12v6h2v-7v-8C62,40.448,61.552,40,61,40z M48,48v-6h12v6H48z"/><rect x="52" y="44" width="4" height="2"/><path fill="#135846" d="M58,33c0.321,0,0.623-0.154,0.811-0.416c0.188-0.261,0.239-0.596,0.138-0.901l-2-6C56.812,25.275,56.431,25,56,25h-4  c-0.431,0-0.812,0.275-0.949,0.684l-2,6c-0.102,0.305-0.05,0.64,0.138,0.901C49.377,32.846,49.679,33,50,33h3v3h-2v2h6v-2h-2v-3H58z   M52.721,27h2.559l1.333,4h-5.226L52.721,27z"/><path fill="#E23428" d="M61.409,15.087l-29-13c-0.261-0.116-0.558-0.116-0.818,0l-29,13C2.231,15.249,2,15.606,2,16v12h2V16.647L32,4.096l28,12.552  V28h2V16C62,15.606,61.769,15.249,61.409,15.087z"/><path fill="#135846" d="M25,17c0,3.86,3.14,7,7,7s7-3.14,7-7c0-0.392-0.033-0.784-0.097-1.166l-1.973,0.332C36.977,16.439,37,16.719,37,17  c0,2.757-2.243,5-5,5s-5-2.243-5-5s2.243-5,5-5c0.572,0,1.134,0.096,1.668,0.285l0.666-1.886C33.585,10.134,32.8,10,32,10  C28.14,10,25,13.14,25,17z"/><path fill="#E23428" d="M30.707,15.293l-1.414,1.414l2,2C31.488,18.902,31.744,19,32,19s0.512-0.098,0.707-0.293l7-7l-1.414-1.414L32,16.586  L30.707,15.293z"/><text x="0" y="79" fill="#000000" font-size="5px" font-weight="bold" font-family="'Helvetica Neue', Helvetica, Arial-Unicode, Arial, Sans-serif">Created by Becris</text><text x="0" y="84" fill="#000000" font-size="5px" font-weight="bold" font-family="'Helvetica Neue', Helvetica, Arial-Unicode, Arial, Sans-serif">from the Noun Project</text></svg>