<svg xmlns="http://www.w3.org/2000/svg" version="1.1" viewBox="-5.0 -10.0 110.0 135.0">
  <path fill="#5D5449"
    d="m50 4.168c-25.25 0-45.832 20.582-45.832 45.832 0 14.293 6.582 27.082 16.918 35.5 0.042968 0.042969 0.082031 0.082031 0.125 0.082031 7.875 6.418 17.875 10.25 28.793 10.25 10.918 0 20.918-3.832 28.793-10.25 0.042969 0 0.082031-0.042969 0.125-0.082031 10.332-8.418 16.918-21.207 16.918-35.5 0-25.25-20.582-45.832-45.832-45.832zm-7.625 48.625c-4.582-2.668-7.668-7.625-7.668-13.293 0-8.418 6.875-15.293 15.293-15.293s15.293 6.875 15.293 15.293c0 5.707-3.125 10.668-7.707 13.293-2.25 1.25-4.832 2-7.582 2s-5.375-0.75-7.625-2zm-17.957 30.082c-0.042969-0.66797-0.082031-1.375-0.082031-2.082 0-10.75 6.668-20.293 16.668-24.043 2.707 1.418 5.75 2.207 9 2.207s6.293-0.79297 9-2.207c10 3.75 16.668 13.293 16.668 24.043 0 0.70703-0.042969 1.418-0.082031 2.082-7.043 5.5-15.918 8.793-25.582 8.793-9.668 0-18.543-3.293-25.582-8.793z" />
  <text x="0.0" y="117.5" font-size="5.0" font-weight="bold"
    font-family="Arbeit Regular, Helvetica, Arial-Unicode, Arial, Sans-serif" fill="#000000">Created
    by Rini Bahtiar</text>
  <text x="0.0" y="122.5" font-size="5.0" font-weight="bold"
    font-family="Arbeit Regular, Helvetica, Arial-Unicode, Arial, Sans-serif" fill="#000000">from
    Noun Project</text>
</svg>